<?xml version="1.0" standalone="no"?><!DOCTYPE svg PUBLIC "-//W3C//DTD SVG 1.1//EN" "http://www.w3.org/Graphics/SVG/1.1/DTD/svg11.dtd"><svg t="1561512461188" class="icon" viewBox="0 0 1024 1024" version="1.1" xmlns="http://www.w3.org/2000/svg" p-id="5168" xmlns:xlink="http://www.w3.org/1999/xlink" width="256" height="256"><defs><style type="text/css"></style></defs><path d="M504.053516 62.637596c-178.141236 0-291.913443 143.710053-291.913443 321.854358 0 178.141236 248.500701 434.126398 291.913443 434.126399 43.415812 0 291.916513-255.983115 291.916512-434.126399 0-178.144306-113.772206-321.854359-291.916512-321.854358z m0 419.158498c-70.360488 0-127.241986-56.885592-127.241986-127.245056 0-70.356394 56.881498-127.243009 127.241986-127.243009s127.246079 56.886615 127.246079 127.243009c0 70.359464-56.885592 127.245056-127.246079 127.245056zM279.503297 713.831798c-106.285698 22.450315-172.152848 58.381665-172.152849 112.273063 0 83.830267 179.638333 134.728494 404.190599 134.728494 224.550219 0 404.187529-50.898227 404.187529-134.728494 0-55.391565-70.360488-92.814896-184.131671-115.267257-16.467043-2.997264-31.43699 7.484462-34.43016 23.950482-2.993171 16.46909 7.486508 31.43699 23.950482 34.43016 85.328387 16.468067 136.227638 43.411719 136.227637 56.885592 0 2.994194-4.488221 7.484462-16.468066 16.468066-16.463973 10.478655-40.418548 20.956288-71.855538 29.940916-67.3622 19.462261-158.677952 29.938869-255.987209 29.93887-97.30414 0-190.115965-10.476609-255.982092-29.93887-31.438013-8.983605-55.390541-19.462261-71.858608-29.940916-13.470803-8.982582-17.96414-13.473873-17.96414-16.468066 0-11.973706 46.407959-37.424354 124.253931-53.891398 16.463973-2.994194 26.943652-19.462261 22.451338-35.930327-1.496074-16.460904-17.963117-26.942629-34.431183-22.450315z m0 0" p-id="5169" fill="#00bcd4"></path></svg>