<?xml version="1.0" standalone="no"?><!DOCTYPE svg PUBLIC "-//W3C//DTD SVG 1.1//EN" "http://www.w3.org/Graphics/SVG/1.1/DTD/svg11.dtd"><svg t="1561429042288" class="icon" viewBox="0 0 1160 1024" version="1.1" xmlns="http://www.w3.org/2000/svg" p-id="8902" xmlns:xlink="http://www.w3.org/1999/xlink" width="290" height="256"><defs><style type="text/css"></style></defs><path d="M423.253333 204.8h655.36c49.152 0 81.92-40.96 81.92-102.4S1127.765333 0 1078.613333 0H423.253333C374.101333 0 341.333333 40.96 341.333333 102.4S374.101333 204.8 423.253333 204.8z m655.36 204.8H423.253333C374.101333 409.6 341.333333 450.56 341.333333 512S374.101333 614.4 423.253333 614.4h655.36c49.152 0 81.92-40.96 81.92-102.4S1127.765333 409.6 1078.613333 409.6z m0 409.6H423.253333c-49.152 0-81.92 40.96-81.92 102.4S374.101333 1024 423.253333 1024h655.36c49.152 0 81.92-40.96 81.92-102.4s-32.768-102.4-81.92-102.4zM102.4 0C40.96 0 0 40.96 0 102.4S40.96 204.8 102.4 204.8 204.8 163.84 204.8 102.4 163.84 0 102.4 0z m0 409.6C40.96 409.6 0 450.56 0 512S40.96 614.4 102.4 614.4 204.8 573.44 204.8 512 163.84 409.6 102.4 409.6z m0 409.6c-61.44 0-102.4 40.96-102.4 102.4S40.96 1024 102.4 1024 204.8 983.04 204.8 921.6 163.84 819.2 102.4 819.2z" p-id="8903" fill="#00bcd4"></path></svg>