<?xml version="1.0" standalone="no"?><!DOCTYPE svg PUBLIC "-//W3C//DTD SVG 1.1//EN" "http://www.w3.org/Graphics/SVG/1.1/DTD/svg11.dtd"><svg t="1561428985205" class="icon" viewBox="0 0 1024 1024" version="1.1" xmlns="http://www.w3.org/2000/svg" p-id="7341" xmlns:xlink="http://www.w3.org/1999/xlink" width="256" height="256"><defs><style type="text/css"></style></defs><path d="M512 70.314667c243.029333 0 441.045333 198.016 441.045333 441.088 0 243.029333-197.973333 441.045333-441.045333 441.045333-243.029333 0-441.045333-197.418667-441.045333-440.448C70.954667 268.970667 268.928 70.314667 512 70.314667zM512 0C229.461333 0 0 229.461333 0 512s228.864 512 512 512c282.538667 0 512-229.461333 512-512S794.538667 0 512 0z" fill="#00bcd4" p-id="7342"></path><path d="M477.397333 651.648a34.389333 34.389333 0 0 1-24.490666-10.410667l-70.4-69.674666a35.370667 35.370667 0 0 1 0-49.493334 35.541333 35.541333 0 0 1 49.578666 0l69.802667 69.674667a35.370667 35.370667 0 0 1 0 49.493333 31.189333 31.189333 0 0 1-24.490667 10.410667z" fill="#00bcd4" p-id="7343"></path><path d="M503.808 651.648a38.058667 38.058667 0 0 1-27.178667-11.52 39.253333 39.253333 0 0 1 0-54.869333l155.392-155.178667a39.381333 39.381333 0 0 1 54.954667 0 39.253333 39.253333 0 0 1 0 54.869333l-155.349333 155.178667a36.949333 36.949333 0 0 1-27.818667 11.52z" fill="#00bcd4" p-id="7344"></path><path d="M645.376 791.253333a35.669333 35.669333 0 0 1-11.349333-1.877333l-99.072-32.256-99.072 32.256a36.053333 36.053333 0 0 1-43.52-17.706667l-47.36-92.928-92.714667-47.445333a36.181333 36.181333 0 0 1-17.664-43.605333l32.170667-99.285334-32.170667-99.285333a36.181333 36.181333 0 0 1 17.664-43.605333l92.757333-47.445334L392.96 205.781333a36.053333 36.053333 0 0 1 43.52-17.706666l99.072 32.256 99.072-32.256a36.053333 36.053333 0 0 1 43.52 17.706666L725.546667 298.666667l92.714666 47.445333c15.786667 8.192 23.338667 26.538667 17.664 43.605333l-32.170666 99.285334 32.170666 99.242666c5.674667 17.066667-1.877333 35.413333-17.664 43.648l-92.757333 47.402667-47.317333 92.970667a37.845333 37.845333 0 0 1-32.810667 18.944z m-110.421333-108.117333c3.797333 0 7.594667 0.64 11.349333 1.92l80.768 25.898667 38.485333-75.861334a34.730667 34.730667 0 0 1 15.786667-15.786666l75.733333-38.570667-25.898666-80.938667a33.28 33.28 0 0 1 0-22.144l25.898666-80.938666-75.733333-38.570667a34.730667 34.730667 0 0 1-15.786667-15.786667l-38.485333-75.904-80.768 25.941334a33.109333 33.109333 0 0 1-22.058667 0l-80.768-25.941334-38.485333 75.904a34.730667 34.730667 0 0 1-15.786667 15.786667l-75.733333 38.570667 25.898667 80.938666a33.28 33.28 0 0 1 0 22.144l-26.538667 80.938667 75.733333 38.570667a34.730667 34.730667 0 0 1 15.786667 15.786666l38.485333 75.861334 80.768-25.898667a35.669333 35.669333 0 0 1 11.349334-1.92zM325.802667 837.802667c-26.112 0-46.506667-12.074667-46.506667-26.496v-40.064c0-14.890667 21.205333-26.496 46.506667-26.496 25.344 0 46.549333 12.074667 46.549333 26.496v40.064c0 14.421333-20.394667 26.496-46.506667 26.496zM744.746667 837.802667c-26.154667 0-46.549333-12.074667-46.549334-26.496v-40.064c0-14.890667 21.205333-26.496 46.506667-26.496 25.344 0 46.549333 12.074667 46.549333 26.496v40.064c0 14.421333-20.394667 26.496-46.506666 26.496z" fill="#00bcd4" p-id="7345"></path></svg>